<svg xmlns="http://www.w3.org/2000/svg" height="800" width="1200" viewBox="-4.39206 -3.069825 38.06452 18.41895"><path d="M6.4258 9.0662c0 1.7748-1.4386 3.213-3.2127 3.213C1.4383 12.2793 0 10.841 0 9.0663c0-1.7738 1.4383-3.2124 3.2131-3.2124 1.7741 0 3.2127 1.4386 3.2127 3.2124m8.9765-3.2451h1.1578v4.852h-1.1578zm6.6054 3.0366v1.81h-.9648V9.1524c0-.4522-.2935-.5753-.509-.5753-.2632 0-.557.1566-.557.5898v1.501h-1.158V7.4986h.9434l.0878.4516c.2332-.2784.563-.4516 1.0319-.4516.507 0 1.1257.4516 1.1257 1.3593m3.5801 1.3628l.4509-.5638c.2748.2498.5747.2981.8043.2777.1542-.0134.2286-.097.2286-.1775 0-.0737-.0434-.1235-.4141-.2346-.5133-.1485-.9649-.4085-.9649-.9835 0-.6678.532-1.0203 1.1628-1.0203.495 0 .8283.1295 1.187.3832l-.3485.6268c-.2868-.226-.5612-.2885-.752-.2783-.1405.008-.241.1094-.241.1958 0 .062.074.1178.377.2162.6862.2167 1.0267.4142 1.0267 1.008 0 .594-.4209 1.0018-1.2803 1.0018-.4699 0-.8904-.1418-1.2365-.4515m-8.477-2.7235h1.1761v3.169h-1.176zm-2.1134.0005c-.486 0-.7891.1217-1.0152.4512l-.0907-.4512h-.9444v3.1693h1.1271V9.482c0-1.0407.93-.8445.93-.8445V7.4977zM9.5888 9.0886c0-.375-.3203-.6336-.6244-.6336-.3298 0-.624.2586-.624.6336 0 .3884.2942.6403.624.6403.3041 0 .6244-.252.6244-.6403m1.106-1.5843v3.169H9.592v-.3994c-.1746.2092-.5658.3994-.9151.3994-.8668 0-1.3776-.6079-1.3776-1.5847 0-.9765.5983-1.5843 1.3871-1.5843.446 0 .8181.1365 1.039.4487l.0853-.4487zm.5383-.0067h1.1762v3.1693h-1.1762zm13.131 1.2558h-.9126s.0007-.0342.008-.0783a.4556.4556 0 01.4484-.3779c.224 0 .4096.162.448.375 0 0 .008.0346.008.0811m-.2614 1.1092c-.321 0-.6152-.2194-.6646-.5098h1.9833c.012-.074.0247-.2226.0247-.2967 0-.9077-.6488-1.5504-1.5201-1.5504-.914 0-1.5692.661-1.5692 1.5755 0 .9327.6798 1.5751 1.5882 1.5751.5359 0 .9592-.181 1.2358-.4233l-.4445-.6212c-.1909.1746-.3877.2508-.6336.2508M12.484 6.4793a.6628.6628 0 00-.663-.6629.6628.6628 0 00-.6628.6629c0 .3662.2967.6628.6629.6628a.6628.6628 0 00.6628-.6628m5.8818 0a.6628.6628 0 00-.6628-.6629.6628.6628 0 00-.663.6629c0 .3662.2968.6628.663.6628a.6628.6628 0 00.6628-.6628M1.2115 2.6198H.8648v-.9264h.3467v-.2332c0-.828.5906-1.4284 1.6225-1.4284.1499 0 .3171.001.3171.001L3.1476.926h-.073c-.5863 0-.7567.296-.7567.653v.114h.9239v.9264h-.863v2.269H1.2116zM3.6668.0317h1.167v4.857h-1.167zm9.2973 1.661c-.4893 0-.794.122-1.022.4536l-.0913-.4536h-.95V4.882h1.1341V3.6897c0-1.048.9356-.8501.9356-.8501v-1.147zm-5.401 1.6009c0-.3775-.3224-.6379-.6283-.6379-.3323 0-.6283.2604-.6283.6379 0 .3905.296.6445.6283.6445.3059 0 .6283-.254.6283-.6445m1.113-1.595v3.1899H7.5663v-.4018c-.176.2106-.5694.4018-.9211.4018-.8724 0-1.3864-.6121-1.3864-1.595 0-.9828.6022-1.5948 1.3963-1.5948.4484 0 .823.1379 1.0453.4519l.086-.452zm.5219-.006h1.1835V4.882H9.198zM10.4573.6675A.6671.6671 0 009.7903 0a.6673.6673 0 10.6671.6675m18.0152 6.9969h-.1439v-.0776h.3764v.0776h-.146v.431h-.0864zm.8078-.0775v.508h-.0864v-.3401h-.001l-.1397.2424h-.0564l-.139-.2424h-.0007v.34h-.0868v-.508h.0868l.1676.3045h.001l.168-.3044z"/></svg>