<?xml version="1.0" encoding="utf-8"?>
<!-- Generator: Adobe Illustrator 23.0.1, SVG Export Plug-In . SVG Version: 6.00 Build 0)  -->
<svg version="1.1" id="Layer_1" xmlns="http://www.w3.org/2000/svg" xmlns:xlink="http://www.w3.org/1999/xlink" x="0px" y="0px"
	 viewBox="0 0 300 300" style="enable-background:new 0 0 300 300;" xml:space="preserve">
<style type="text/css">
	.st0{fill:#231F20;}
	.st1{fill-rule:evenodd;clip-rule:evenodd;fill:#FFFFFF;}
	.st2{fill-rule:evenodd;clip-rule:evenodd;fill:#EC1C24;}
</style>
<g>
	<path class="st0" d="M59.36,193.1c-0.52,0-1,0.11-1.45,0.34c-0.45,0.22-0.84,0.52-1.16,0.88c-0.33,0.36-0.6,0.76-0.8,1.19
		c-0.21,0.43-0.31,0.87-0.31,1.32c0,0.9,0.2,1.62,0.6,2.17c0.4,0.55,0.94,0.97,1.63,1.24l6.32,2.64c2.14,0.86,3.88,2.12,5.23,3.78
		c1.35,1.66,2.02,3.85,2.02,6.58c0,1.59-0.32,3.06-0.96,4.43c-0.64,1.36-1.5,2.55-2.59,3.57c-1.09,1.02-2.36,1.82-3.81,2.41
		c-1.45,0.59-3,0.88-4.66,0.88c-1.35,0-2.62-0.2-3.83-0.6c-1.21-0.4-2.31-0.94-3.31-1.63c-1-0.69-1.87-1.51-2.61-2.46
		c-0.74-0.95-1.3-1.99-1.68-3.13l5.23-2.9c0.1,0.21,0.28,0.58,0.54,1.11c0.26,0.54,0.63,1.07,1.11,1.61
		c0.48,0.54,1.1,1.02,1.84,1.45c0.74,0.43,1.65,0.65,2.72,0.65c0.76,0,1.48-0.14,2.17-0.41c0.69-0.28,1.29-0.66,1.81-1.16
		s0.93-1.08,1.24-1.73c0.31-0.66,0.47-1.35,0.47-2.07c0-1.1-0.33-2.1-0.98-2.98c-0.66-0.88-1.48-1.53-2.49-1.94l-5.8-2.43
		c-1.86-0.76-3.36-1.96-4.48-3.6c-1.12-1.64-1.68-3.46-1.68-5.46c0-1.35,0.25-2.61,0.75-3.78s1.19-2.2,2.07-3.08
		c0.88-0.88,1.91-1.57,3.08-2.07c1.17-0.5,2.43-0.75,3.78-0.75c1.93,0,3.67,0.49,5.2,1.48c1.54,0.98,2.7,2.29,3.49,3.91l-5.23,2.9
		c-0.28-0.69-0.72-1.25-1.35-1.68C60.86,193.32,60.15,193.1,59.36,193.1L59.36,193.1z M78.04,187.82h6.16v22.11
		c0,1.17,0.22,2.27,0.67,3.29c0.45,1.02,1.05,1.91,1.81,2.67c0.76,0.76,1.65,1.36,2.67,1.81c1.02,0.45,2.11,0.67,3.29,0.67
		c1.17,0,2.27-0.22,3.29-0.67c1.02-0.45,1.91-1.05,2.67-1.81c0.76-0.76,1.36-1.65,1.81-2.67c0.45-1.02,0.67-2.11,0.67-3.29v-22.11
		h6.16v22.11c0,2-0.39,3.89-1.16,5.67c-0.78,1.78-1.82,3.32-3.13,4.63c-1.31,1.31-2.86,2.36-4.63,3.13
		c-1.78,0.78-3.67,1.16-5.67,1.16c-2.04,0-3.93-0.39-5.7-1.16c-1.76-0.78-3.31-1.82-4.63-3.13c-1.33-1.31-2.37-2.86-3.13-4.63
		c-0.76-1.78-1.14-3.67-1.14-5.67V187.82L78.04,187.82z M130.84,223.81h-13.88v-35.98h10.82c1.45,0,2.85,0.27,4.19,0.8
		c1.35,0.54,2.54,1.27,3.57,2.2c1.04,0.93,1.86,2.04,2.49,3.31c0.62,1.28,0.93,2.68,0.93,4.19c0,2.35-0.72,4.42-2.17,6.21
		c1.42,1,2.54,2.26,3.37,3.78c0.83,1.52,1.24,3.16,1.24,4.92c0,1.45-0.28,2.81-0.83,4.09c-0.55,1.28-1.31,2.4-2.28,3.37
		c-0.97,0.97-2.09,1.73-3.37,2.28C133.65,223.53,132.29,223.81,130.84,223.81L130.84,223.81z M128.46,202.73
		c0.59,0,1.15-0.11,1.68-0.34c0.54-0.22,1-0.54,1.4-0.93c0.4-0.4,0.71-0.86,0.93-1.4c0.22-0.54,0.34-1.11,0.34-1.73
		c0-1.21-0.42-2.23-1.27-3.08c-0.85-0.85-1.87-1.27-3.08-1.27h-5.33v8.75H128.46L128.46,202.73z M130.84,217.64
		c1.21,0,2.23-0.43,3.08-1.29c0.85-0.86,1.27-1.9,1.27-3.11c0-1.21-0.42-2.23-1.27-3.08c-0.85-0.85-1.87-1.27-3.08-1.27h-7.71v8.75
		H130.84L130.84,217.64z M167.69,187.15l9.47,20.35l6.01-19.67h6.47l-11.34,36.71l-10.61-22.83l-10.67,22.83l-11.34-36.71h6.47
		l6.01,19.67L167.69,187.15L167.69,187.15z M206.41,187.1l17.97,36.71h-6.99l-3-6.16h-16l-3,6.16h-6.99L206.41,187.1L206.41,187.1z
		 M201.39,211.59h9.99l-4.97-10.41L201.39,211.59L201.39,211.59z M233.43,211.28l-13.1-23.45h7.04l9.16,16.41l9.11-16.41h7.04
		l-13.1,23.45v12.53h-6.16V211.28L233.43,211.28z"/>
	<path class="st1" d="M250.72,160.52l25.95-34.07h-76.65l14.74-26.41h-14.59l8.93-23.3H91.7l8.93,23.3H86.04l14.74,26.41H24.13
		l25.95,34.07h69.89l0.33,0.38c7.33,8.5,19.07,12.75,30.11,12.75c11.04,0,22.78-4.25,30.11-12.75l0.33-0.38H250.72L250.72,160.52z"
		/>
	<path class="st2" d="M136.79,111.97v-4.43h-1.3l-4.98,6.59l1.53,1.53c0.36-0.47,0.81-0.94,1.22-1.33
		C134.28,113.35,135.48,112.5,136.79,111.97L136.79,111.97z M171.55,107.54h-24.02v3.85h1.94v22.08c1.42,1.02,3.32,0.92,4.94,0.73
		v5.48h-4.94c-0.03,2.65-0.93,5.07-3.52,6.16c-0.93,0.39-2.24,0.61-3.28,0.52v2.64h21.7v-2.64c-1.06,0.09-2.38-0.13-3.32-0.52
		c-2.65-1.1-3.56-3.57-3.56-6.28v-28.15h9.85c2.11,0,4.04,0.95,5.64,2.26c0.68,0.56,1.47,1.34,2.03,2.08l1.59-1.53L171.55,107.54
		L171.55,107.54z M160.23,96.86h-36.06l-4.98,6.59l1.53,1.53c0.56-0.73,1.35-1.49,2.03-2.04c1.61-1.3,3.53-2.23,5.63-2.23h9.78
		v28.15c0,2.7-0.89,5.18-3.52,6.28c-0.93,0.39-2.24,0.61-3.29,0.52v2.64h21.7v-2.64c-1.06,0.09-2.38-0.13-3.32-0.52
		c-2.65-1.09-3.56-3.57-3.56-6.28V100.7h9.85c2.11,0,4.04,0.95,5.64,2.26c0.68,0.56,1.47,1.34,2.03,2.08l1.59-1.53L160.23,96.86
		L160.23,96.86z M158.86,118.68c5.03,0.7,10.92,2.44,14.09,6.66l2-1.12l-5.87-6.46c-0.15,0.15-0.33,0.29-0.48,0.39
		c-0.52,0.35-1.11,0.55-1.74,0.55c-1.02,0-2.3-0.29-3.26-0.63c-1.56-0.53-3.14-1.01-4.74-1.42V118.68L158.86,118.68z M160.97,144.26
		c5.25-1.49,9.82-4.26,13.73-8.05l-1.67-1.61c-3.97,3.62-8.61,6.13-13.91,7.09C159.46,142.78,159.99,143.65,160.97,144.26
		L160.97,144.26z M148.31,115.19c-0.26,0-0.51,0.01-0.77,0.01v3.44c0.26-0.03,0.51-0.05,0.77-0.07V115.19L148.31,115.19z
		 M127.09,137.22c-1.79-2.08-2.81-4.51-2.95-7.26c-0.03-0.82,0.04-1.64,0.22-2.44c0.58-2.55,2.18-4.67,4.15-6.33
		c2.36-1.98,5.29-3.36,8.22-4.28l0.25-0.08v6.13c-1.94,1.72-3.47,4.03-3.47,6.72c0,1.39,0.45,2.72,1.14,3.91l0.1,0.17
		c-1.55,0.83-2.91,0.78-4.58,0.57v5.13l12.16,0.01c1.88,0.78,3.82,1.36,5.82,1.79c-0.46,2-1.7,3.34-3.69,3.78
		C138.35,144.05,131.3,142.12,127.09,137.22L127.09,137.22z M119.46,161.62H49.53L21.9,125.34h77L84.16,98.93h14.87l-8.93-23.3
		h120.6l-8.93,23.3h14.87l-14.74,26.41h77l-27.62,36.28h-69.93c-7.58,8.79-19.65,13.14-30.94,13.14
		C139.1,174.75,127.04,170.41,119.46,161.62L119.46,161.62z M150.4,171.61c10.92,0,22.55-4.35,29.46-13.13h69.86l22.84-29.99h-76.01
		l14.74-26.41H197.2l8.93-23.3H94.67l8.93,23.3H89.51l14.74,26.41H28.24l22.84,29.99h69.86
		C127.85,167.26,139.48,171.61,150.4,171.61L150.4,171.61z M194,133.04l-11.66,20.88h65.04l15.95-20.88H194L194,133.04z
		 M106.93,133.04l11.66,20.88H53.55L37.6,133.04H106.93L106.93,133.04z M100.97,82.91l25.27,65.48
		c4.88,12.66,14.56,18.79,24.23,18.77c9.66,0.02,19.34-6.11,24.23-18.77l25.27-65.48H100.97L100.97,82.91z"/>
</g>
</svg>
